<?xml version="1.0" encoding="UTF-8"?>
<svg version="1.1" xmlns="http://www.w3.org/2000/svg" width="512" height="512">
<path d="M0 0 C1.19554504 0.00182281 2.39109009 0.00364563 3.62286377 0.00552368 C20.73818593 0.04951347 37.60655815 0.28503267 54.5 3.3125 C55.53060547 3.49474121 56.56121094 3.67698242 57.62304688 3.86474609 C101.63709908 11.89107463 145.5585677 30.38516496 171.91894531 68.35644531 C186.52819281 90.29521303 194.81700556 114.28417361 198.5 140.3125 C198.63148438 141.23417969 198.76296875 142.15585938 198.8984375 143.10546875 C199.96938255 152.44005736 199.58268508 161.93233693 199.5 171.3125 C196.42730634 172.19130554 193.57731408 172.49458308 190.38739014 172.62257385 C189.35536469 172.66601929 188.32333923 172.70946472 187.26004028 172.75422668 C185.57042679 172.81896431 185.57042679 172.81896431 183.84667969 172.88500977 C182.65615997 172.93392365 181.46564026 172.98283752 180.23904419 173.03323364 C176.97916611 173.16635278 173.71916625 173.29576811 170.45907497 173.4235394 C167.05033399 173.55801308 163.64178634 173.69721865 160.23321533 173.83592224 C153.78069078 174.0977721 147.32800365 174.35536638 140.87524724 174.61143202 C133.52812335 174.90319649 126.18119332 175.19970483 118.83427572 175.49661171 C103.72306023 176.10718638 88.61161164 176.71180355 73.5 177.3125 C72.8588523 174.92564181 72.2188885 172.53847652 71.57958984 170.15112305 C71.30942299 169.14607349 71.30942299 169.14607349 71.03379822 168.12071991 C70.03617739 164.39135548 69.08612919 160.65810171 68.2265625 156.89453125 C65.21125557 143.7197947 61.89281402 130.76582194 50.5 122.3125 C26.40985726 107.34834246 -5.54546976 107.32961534 -32.5 113.3125 C-41.45190227 115.4931163 -49.63435812 118.43922188 -57.5 123.3125 C-58.57314453 123.82876953 -58.57314453 123.82876953 -59.66796875 124.35546875 C-62.14823528 125.65113037 -62.47260499 126.70976597 -63.5 129.3125 C-63.77070313 129.89257812 -64.04140625 130.47265625 -64.3203125 131.0703125 C-66.60037132 136.30828547 -66.84884351 139.73728014 -65.5 145.3125 C-58.88943454 158.2692083 -44.13129513 163.86333788 -31.06347656 168.16699219 C-29.05018157 168.80209999 -27.03404337 169.4282427 -25.015625 170.046875 C-23.89968964 170.38917648 -22.78375427 170.73147797 -21.63400269 171.08415222 C-8.25516967 175.09986014 5.31438034 178.31019743 18.89602661 181.5524292 C130.75215866 208.28635845 130.75215866 208.28635845 171.5 245.3125 C172.37269531 246.10140625 173.24539063 246.8903125 174.14453125 247.703125 C198.80869153 271.16320816 211.86095117 305.95466837 212.76477051 339.676651 C212.82627859 343.45155337 212.83098111 347.22471374 212.8125 351 C212.81034485 351.79341797 212.8081897 352.58683594 212.80596924 353.40429688 C212.75431499 365.26148465 212.38791091 376.75558164 209.5 388.3125 C209.31195801 389.09334961 209.12391602 389.87419922 208.93017578 390.67871094 C204.28615302 409.36563783 196.32675111 427.06773394 184.5 442.3125 C183.79359375 443.23933594 183.0871875 444.16617187 182.359375 445.12109375 C149.38737066 486.92912083 98.99815457 504.03009067 47.84643555 510.92700195 C38.99227825 511.9469709 30.25778513 512.47993909 21.34375 512.515625 C20.20256714 512.52132507 19.06138428 512.52702515 17.88562012 512.53289795 C15.47535105 512.54229543 13.06506943 512.54886088 10.65478516 512.55273438 C7.06518339 512.56232583 3.47618384 512.59335297 -0.11328125 512.625 C-21.20503125 512.72250184 -42.26234493 511.26056868 -62.875 506.5625 C-64.02726074 506.30645996 -65.17952148 506.05041992 -66.36669922 505.78662109 C-111.45303695 495.42244841 -153.25370463 470.92289584 -178.5 431.3125 C-198.07175368 399.59534014 -209.67484335 360.72212789 -209.5 323.3125 C-196.36186994 321.39074051 -183.17045665 320.16338351 -169.953125 318.9296875 C-167.60518415 318.70855695 -165.25726375 318.48720921 -162.90936279 318.26565552 C-158.02144767 317.8050283 -153.13335709 317.34632766 -148.24511719 316.88916016 C-141.973549 316.30255757 -135.70234946 315.71211756 -129.43126297 315.12038994 C-124.59823179 314.66459353 -119.76506356 314.21026511 -114.93184662 313.75644302 C-112.61769244 313.53907505 -110.30356974 313.32137173 -107.98947906 313.1033287 C-104.7707862 312.80037839 -101.55192593 312.49927664 -98.33300781 312.19873047 C-96.89776764 312.06318253 -96.89776764 312.06318253 -95.43353271 311.92489624 C-94.55918579 311.84364502 -93.68483887 311.7623938 -92.78399658 311.67868042 C-92.02456379 311.60753462 -91.265131 311.53638882 -90.48268509 311.46308708 C-88.82580377 311.33724515 -87.16165337 311.3125 -85.5 311.3125 C-85.22905518 312.64873413 -85.22905518 312.64873413 -84.95263672 314.01196289 C-84.25915052 317.39725323 -83.55301398 320.77943185 -82.83886719 324.16040039 C-82.53546084 325.60892619 -82.23676224 327.0584481 -81.94335938 328.5090332 C-77.44262145 350.71215985 -68.69252922 372.8253862 -49.34350586 386.09643555 C-26.25009054 401.05413087 3.97089176 404.00463073 30.8125 399.1875 C44.29326379 396.25570787 57.02753463 392.10336384 68.5 384.3125 C69.09941406 383.92707031 69.69882812 383.54164063 70.31640625 383.14453125 C77.55165668 377.91172611 82.29265546 368.43685255 83.984375 359.85546875 C84.96162601 351.18955168 84.06006222 344.3022925 78.5 337.3125 C68.56429043 325.95740335 54.03941138 321.1969582 39.9765625 317.11328125 C38.94294083 316.8127182 37.90931915 316.51215515 36.84437561 316.20248413 C22.30322804 312.03906162 7.58905313 308.5264762 -7.10235596 304.93945312 C-22.87562264 301.08785801 -38.59240516 297.11841543 -54.19140625 292.60546875 C-55.43249649 292.24804596 -56.67358673 291.89062317 -57.95228577 291.52236938 C-104.81464807 277.76839761 -152.27651165 254.34562782 -176.75 210.0625 C-193.18045073 178.94873716 -195.32555188 138.96839682 -185.29370117 105.56665039 C-178.60459377 84.53801932 -167.5783677 67.31960774 -152.5 51.3125 C-151.9121875 50.66023438 -151.324375 50.00796875 -150.71875 49.3359375 C-127.0013192 24.05814941 -91.64677979 11.10198607 -58.4375 4.5625 C-57.43452881 4.36374268 -56.43155762 4.16498535 -55.39819336 3.96020508 C-36.97007229 0.52819371 -18.70774243 -0.05903894 0 0 Z " fill="#000000" transform="translate(254.5,-0.3125)"/>
</svg>
